<svg id="Layer_1" data-name="Layer 1" xmlns="http://www.w3.org/2000/svg" viewBox="0 0 758.62 232.2"><defs><style>.cls-1{fill:#474747;}</style></defs><title>Casey Neistat Name</title><path class="cls-1" d="M398.07,148.42c-1.49,9.05-3.08,18.08-4.43,27.14-2.09,14-3.85,28-6.16,41.91-.42,2.53-3.17,6.92-4.15,6.74-4.26-.81-8.32-2.91-7.23-8.69,2.84-15,5.4-30,8.59-44.89,1.32-6.19,4.32-12,5.8-18.2.67-2.79-1.05-6.09-.77-9.07,1-10.12,3.41-20.2,3.34-30.29-.1-17-1.75-34-2.59-51-.11-2.22,0-5.78,1.27-6.47,3.22-1.78,7.67-3.89,8.53,3.62,1-2.53,1.17-4.9,2.37-5.64,1.92-1.19,4.51-1.3,6.82-1.87.45,2.2,1.45,4.45,1.24,6.59-.9,9.44-1.7,18.92-3.37,28.24-3.06,17.18-1.35,34.08,1.27,51.1,2.68,17.39,4.71,34.87,7,52.31.25,1.86.72,3.7,1.09,5.54l1.77-.14c0-3.66-.18-7.32,0-11,.65-11.16.65-22.45,2.47-33.43,1.24-7.49,5.31-14.46,7.69-21.81.91-2.83,1.69-6.42.74-9-4.32-11.83,1.22-22.46,3.34-33.49,1.68-8.75,3.57-17.47,5.74-26.12,1.59-6.37,4-12.55,5.65-18.9,1.59-5.94,2.54-12.05,4.16-18,1.32-4.82,2.62-9.83,5.13-14,.93-1.57,5.25-1.37,8-1.4.58,0,1.89,2.62,1.67,3.82a109.16,109.16,0,0,1-3.62,15.41c-3.67,10.93-8.61,21.5-11.49,32.62-3.76,14.56-6,29.5-8.9,44.28a9.35,9.35,0,0,0,.12,2.29,13.19,13.19,0,0,0,2.35-.56c5-2.17,9.9-4.53,14.94-6.56,4.65-1.87,7.65-4.77,7.76-10.07.06-3,.86-4.89,4.73-4.28,3.23.51,6.86,0,6.62,4.66-.3,5.85,2.49,4.17,6.24,3.68a125,125,0,0,1,22-.8c1.5.07,4.33,4.24,3.9,5.77-.69,2.41-3.39,5.54-5.66,5.93-4.27.73-8.86-.14-13.29-.57a16.14,16.14,0,0,0-17,12.9q-3,16.2-6.49,32.3c-1,4.64.14,5,4.4,3.68a27.48,27.48,0,0,1,11.63-.67c1.92.28,5.07,3.27,4.86,4.59-.39,2.52-2.28,5.75-4.48,6.87-5.13,2.61-11,3.79-16.19,6.29a10.66,10.66,0,0,0-5,6.09c-2,7-3.26,14.26-4.75,21.42-.56,2.65-.89,4.71,3.21,3,8.54-3.63,17.11-7.39,26-10,5.32-1.57,11.24-1.35,16.9-1.36,1.08,0,3.35,3.06,3,4.08-.85,2.74-2.23,6.6-4.4,7.45q-25.21,9.88-50.92,18.48c-2,.68-5.85-1.46-7.64-3.4s-2.93-5.45-2.3-7.69c2.36-8.35,5.74-16.4,8.37-24.68,1.13-3.57.85-6.43-4.4-7.25-2.59-.41-4.67-4.07-7-6.26,1.8-1.87,3.29-4.78,5.46-5.43,7.9-2.37,9.46-8.22,10.81-15.32,2.17-11.47,5.36-22.75,8.28-34.07.84-3.24-.1-4.19-3.09-3.06-4,1.53-8,3.31-12,4.87-1.52.58-3.73,1.7-4.66,1.1-5.44-3.52-4.88.73-5.2,3.76q-4.27,40.13-8.5,80.27c-1.11,10.57-2,21.17-3.32,31.72-.23,1.81-1.77,4.49-3.18,4.84a7.82,7.82,0,0,1-6.21-1.72c-7.88-7.34-7.77-17.4-8.63-27.12-.46-5.11-1.45-10.18-2-15.29-1.72-15.21-3.37-30.43-5-45.64Z" transform="translate(-23.76 -8.16)"/><path class="cls-1" d="M148.65,127.75a53.53,53.53,0,0,0-.31,6.11c0,2.68,0,5.35,0,8,0,5.2-.09,10.41,0,15.61.36,18.57.73,37.14,1.54,55.69.2,4.55-.53,9.4-4.76,9.08-2.7-.2-6.77-5.75-7.15-9.23-.8-7.47-1-15-1.27-22.48-.12-3.69-.29-7.37-.42-11.06-.1-2.71-.93-5.37-4.06-5.92C129,173,124,175.07,120.75,176a15.64,15.64,0,0,0-6.09,2.81c-3.86,3.4-4,10.24-4.71,14.91-.27,1.75,1.3,3.71,1.5,5.63a12.06,12.06,0,0,1-.81,4.57c-1.39,4.44-2.7,8.92-4.43,13.23a42.67,42.67,0,0,1-4.24,7.19c-1.77-1.52-5-3.41-5.49-5.88-1-5.51-3.45-2.46-5.62-1.58-8.22,3.37-16.15,8.3-24.69,9.87-18.92,3.46-26.93-2.23-36.29-20.2-8-15.44-6.61-33-4.37-50.05,1.36-10.32,2-20.91,4.88-30.83C35.84,107,38.15,86.68,52,71.41c5.49-6.07,12-11.71,21.09-12,11.1-.31,17.21,3.88,19.48,14.86,2.35,11.33,7.39,31-3.76,39.37-3.7-4.41-3.16-9.87-3.3-15.29-.15-5.89-.23-11.79-.86-17.66-1.36-12.63-7.77-15.53-19-9.69C56.79,75.6,51.41,83.1,47.89,91.85c-10.66,26.46-16.74,54-15.88,82.6a85.94,85.94,0,0,0,6.63,29.34c5,12.27,17.24,17.15,29.78,12.74,10-3.5,19.36-8.61,29-13.08a2.91,2.91,0,0,0,1.23-1.83c4.87-20,9.79-40,14.49-60,5.16-22,10.09-44.06,15.19-66.07a4.45,4.45,0,0,1,1.7-2.74c3.82-2.06,14.15,2.82,14.6,7.14q1.24,12,2.32,24,.54,6,1.07,12c.31,3.51,1.17,7.42.75,10.92C148.71,127.16,148.68,127.46,148.65,127.75Zm-11.44-26.91,0,0a1,1,0,0,0-1.45-.27,1.42,1.42,0,0,0-.28.58q-4.48,15-8.94,29.9c-1.63,5.5-3.52,10.91-5.22,16.39-.85,2.73-1.71,5.48-2.39,8.27-.49,2-1.89,4.93-.58,6.88,2,2.87,9,0,11.67-.37,4.74-.73,10.89-.14,6.48-8.21-.63-1.15-.17-2.95-.08-4.43.33-6.09.93-12.17,1-18.25.16-9.62,0-19.23.08-28.85A3,3,0,0,0,137.21,100.84Z" transform="translate(-23.76 -8.16)"/><path class="cls-1" d="M187.15,199.78c-1.45,4.21-2.74,8.47-4.37,12.6-4,10.26-19.09,19.78-27.62,8.48-.42-.55,4.78-3.1,5.57-3,6.49,1.3,9.59-3.1,10.83-7.42a334.5,334.5,0,0,0,8-35.28c2.34-13.63-4.29-23.32-15.62-30.09-10.68-6.37-12.24-10.62-10.56-23.6,2.41-18.61,14.68-30.62,27.07-42.69,1.38-1.35,3.35-2.77,5.14-2.9,3.92-.3,10.26-1.21,11.38.66,2.71,4.54-.51,9.14-4.84,12-1,.66-2.92-.12-4.41-.1-1.12,0-2.6-.18-3.31.44-11.22,9.68-19.31,21.38-23.08,35.92-1.34,5.2.43,8.84,4.75,11.37,9.79,5.73,18.8,12,22.19,23.8.26.87,2.75,1.71,4,1.51,1.53-.23,3.81-1.32,4.18-2.53,4.16-13.55,8.05-27.18,11.9-40.82.46-1.63.22-3.46.3-5.19a40.91,40.91,0,0,0-4.69.76c-5.44,1.57-11.27,4.21-13.25-4.29-.31-1.33.68-3.85,1.81-4.47a35.63,35.63,0,0,1,9.74-3.71c8.56-1.73,12.28-6.86,12-15.37-.06-1.82-.19-3.89.57-5.42,1.13-2.23-2.37-7.53,4.37-6.37,5.32.91,9.14,1.52,7.77,8.76-2,10.36-1.51,10.23,9,9.34a98.45,98.45,0,0,1,17.34.13c1.37.12,5.72,2.94,4.75,4.62s-2.51,4.11-4.46,4.55c-8.87,2-18,2.95-26.84,5-2.2.51-4.83,3.42-5.47,5.72-3.82,14-7,28.07-10.64,42.08-.95,3.69-.51,5.18,3.55,3.66,6.36-2.4,12.59-5.38,19.16-6.88,4-.93,8.61.36,12.9.91.34,0,1,2.63.53,3.11-2.77,2.93-5.37,6.71-8.87,8.12-8.89,3.6-18.32,5.85-27.33,9.19-2.42.9-5.17,3.42-5.91,5.78a100.51,100.51,0,0,0-3.34,17.11c-.81,6.19,2.08,9.12,8.23,8.77,9.79-.55,19.57-1.52,29.36-1.73,4.32-.09,8.74,1,12.91,2.28.5.15.53,5.13-.68,6.84s-4.2,2.89-6.48,3c-13.75.64-27.54,1.44-41.29,1.1C194.06,215.34,191.48,206.48,187.15,199.78Z" transform="translate(-23.76 -8.16)"/><path class="cls-1" d="M667.28,215.24c0-7.64.15-14.62-.16-21.58,0-1-2.37-2.77-3.5-2.67-3.44.32-6.89,2.25-10.21,2-10-.8-11.66,6.3-13.74,13.33-2.83,9.56-5.67,19.12-8.62,28.64-1.34,4.33-4.43,6.86-8.69,4.53-3.85-2.11-7.29-5.17-5.08-10.85q6.16-15.84,11.73-31.92c6.55-18.83,12.24-38,19.5-56.52,7.82-19.93,16.83-39.42,25.91-58.82,1.1-2.33,5.82-3.81,9-4.12,5.14-.48,5.58,3.83,5.29,7.64-1.18,15.56-2.55,31.11-3.81,46.67-1.06,13.07-2.17,26.15-3,39.23-.11,1.76,1.6,3.57,2.12,5.45s1.46,5.35.77,5.78c-8,5-4,12.61-4.21,19-.32,7.93,1.11,15.92,1,23.87,0,2.46-2.23,5.65-4.38,7-1.06.66-5.42-1.63-6.27-3.5C669,224.14,668.35,219.35,667.28,215.24Zm6-94.54c0,.07-.27-1.3-.56-2.67a38.42,38.42,0,0,0-2,3.52c-3.17,7.11-6.57,14.14-9.34,21.41-4.17,11-7.92,22.08-11.7,33.18-.18.52,1.18,2.28,1.65,2.21a135.86,135.86,0,0,0,15.15-2.76c1.62-.42,3.8-2.36,4-3.81.38-3.09-.84-6.35-.62-9.49C670.74,148.91,672,135.55,673.24,120.7Z" transform="translate(-23.76 -8.16)"/><path class="cls-1" d="M279,189.56a2.71,2.71,0,0,0,.09-.41,3.25,3.25,0,0,0-.06-.76c-1.29-7.75-2.15-15.55-2.87-23.38-.75-8.09-.88-16.51-2.34-24.51,0-.2-.05-.41-.07-.61-1.74-13.63-4.1-27.18-6.23-40.76-.2-1.25-.93-2.42-1.19-3.67-.41-1.89-1.49-4.83-1.29-6.73s6.06-2.09,7.42-1.74c1.6.42,3.32,3.06,3.72,5,3.25,15.61,6.18,31.29,9.27,46.93a15.9,15.9,0,0,0,1.51,3.32,14.82,14.82,0,0,0,2.45-2.84c6-12.11,10.59-25.29,18.42-36.09A145.75,145.75,0,0,0,317.2,88c1.61-2.9,2.65-6.1,4.61-8.82,2.76-3.81,5.91-2.86,10.1-1.66a5.8,5.8,0,0,1,3.42,3.91c.26,1.74-.73,3.86-1.66,5.56-13.85,25.32-27.89,50.54-41.52,76-1.48,2.77-1.09,6.76-.94,10.15.69,15.77,1.76,31.52,2.26,47.28.06,2.06-2.2,4.43-3.91,6.12-.38.37-3.89-1.14-4.43-2.42-2.48-6-5.1-12-6.36-18.34-.94-4.64-1.35-11.29.14-15.86C278.94,189.78,279,189.67,279,189.56Z" transform="translate(-23.76 -8.16)"/><path class="cls-1" d="M706.56,102.08c4.59-.42,9.2-.72,13.77-1.29,17.32-2.17,34.59-4.71,52-6.38,3.11-.29,8.51,2.16,9.45,4.63,2,5.15-.6,9.86-6.87,10.73-14.73,2-29.47,4-44.25,5.65-4.32.48-4.63,1.62-4.17,5.89A273.18,273.18,0,0,1,728.22,156c-.33,17.92-1.38,35.84-2.69,53.72-.34,4.68,1.07,11.89-8,11.1-5.13-.45-7-3.53-6.81-7.86,1.19-28.82,2.82-57.61,3.77-86.43.29-8.6-2.92-10.9-11.18-8.77-5.73,1.48-11.07,2.37-13.22-4.15-1.85-5.59,4.28-11.14,12-11.89,1.48-.14,3,0,4.48,0Z" transform="translate(-23.76 -8.16)"/><path class="cls-1" d="M601.39,120.82a1.41,1.41,0,0,0,.79,0c7.9-1.53,15.93-3.25,24-3.7,6.89-.39,13.94.68,20.76,1.95,1.22.22,2.51,4.72,2.18,7-.21,1.53-3.28,3.79-5,3.76-10.08-.19-10.46-.32-12.84,9.45-5.34,21.94-10.32,44-15.8,65.88-.77,3.09-3.16,6.13-5.62,8.24-.89.77-5.35-.64-6.08-2.1a14.5,14.5,0,0,1-1-8.85c4.63-21.43,9.53-42.8,14.47-64.15.83-3.57,1-5.07-3.74-4.37-5,.74-10.24.14-15.34-.28-6-.48-7.47-5.53-7.63-10.06-.08-2.35,1.33-3.4,3.5-3.67,1.45-.18,5.67-.45,6.83.43A3.41,3.41,0,0,0,601.39,120.82Z" transform="translate(-23.76 -8.16)"/><path class="cls-1" d="M557.07,209.14c-2.81-.71-5.05-3-7.21-4.78-.24-.2,4.31-4.43,4.77-4.67,10.51-5.44,15.24-14.42,18.94-25.4,3.58-10.61,1.24-17.86-5.75-25.64a26.16,26.16,0,0,1-4.67-28.92c3-6.81,8.8-12.59,14.06-18.17a84.09,84.09,0,0,1,16-13.59c3-1.87,7.68-1.25,11.59-1.17.64,0,2.21,3.64,1.65,4.54a20.9,20.9,0,0,1-5.81,5.78c-12.52,8.79-22.23,20-28.1,34.07-1.08,2.56.39,7.55,2.45,9.84,11.15,12.42,14.82,26,8.48,41.83-1.66,4.16-2.66,8.6-4.46,12.69a22,22,0,0,1-9.87,10.66,33.74,33.74,0,0,1-7.43,2.78A9.15,9.15,0,0,1,557.07,209.14Z" transform="translate(-23.76 -8.16)"/><path class="cls-1" d="M539.14,146.11c-1.55,15.54-3.14,31.07-4.63,46.62-.42,4.36-2.21,8.28-6.89,6.91-4-1.17-6.42-4.66-5.73-10.07,1.58-12.45,2.36-25,3.4-37.51.37-4.47.28-9,1.05-13.4.25-1.4,2.67-3.5,4-3.43C538.61,135.69,539.81,137.38,539.14,146.11Z" transform="translate(-23.76 -8.16)"/><path class="cls-1" d="M541.69,97.15l-5.28,7c-2.45-4.22-4.94-8.42-7.19-12.74-.1-.19,2.07-2.27,3.12-2.22C536.55,89.47,540.65,90.31,541.69,97.15Z" transform="translate(-23.76 -8.16)"/></svg>